<svg data-v-423bf9ae="" xmlns="http://www.w3.org/2000/svg" viewBox="0 0 298.69048026774027 60" class="font"><!----><!----><!----><g data-v-423bf9ae="" id="f5d40735-7c08-48fa-8b74-742f8772715f" fill="white" transform="matrix(5.952380997433594,0,0,5.952380997433594,-4.583336133264908,-18.75000118641627)"><path d="M1.15 13.09L1.15 13.09Q0.99 13.09 0.88 12.98L0.88 12.98L0.88 12.98Q0.77 12.87 0.77 12.71L0.77 12.71L0.77 3.67L0.77 3.67Q0.77 3.51 0.88 3.40L0.88 3.40L0.88 3.40Q0.99 3.29 1.15 3.29L1.15 3.29L5.39 3.29L5.39 3.29Q7.35 3.29 8.48 4.16L8.48 4.16L8.48 4.16Q9.60 5.03 9.60 6.72L9.60 6.72L9.60 6.72Q9.60 8.40 8.48 9.22L8.48 9.22L8.48 9.22Q7.36 10.04 5.39 10.04L5.39 10.04L4.41 10.04L4.41 12.71L4.41 12.71Q4.41 12.87 4.30 12.98L4.30 12.98L4.30 12.98Q4.19 13.09 4.03 13.09L4.03 13.09L1.15 13.09ZM4.34 7.45L5.32 7.45L5.32 7.45Q5.57 7.45 5.77 7.26L5.77 7.26L5.77 7.26Q5.96 7.07 5.96 6.69L5.96 6.69L5.96 6.69Q5.96 6.37 5.81 6.13L5.81 6.13L5.81 6.13Q5.66 5.89 5.32 5.89L5.32 5.89L4.34 5.89L4.34 7.45ZM15.06 13.23L15.06 13.23Q12.96 13.23 11.72 12.26L11.72 12.26L11.72 12.26Q10.47 11.30 10.39 9.45L10.39 9.45L10.39 9.45Q10.37 9.07 10.37 8.23L10.37 8.23L10.37 8.23Q10.37 7.38 10.39 6.99L10.39 6.99L10.39 6.99Q10.43 5.78 11.03 4.91L11.03 4.91L11.03 4.91Q11.62 4.05 12.66 3.60L12.66 3.60L12.66 3.60Q13.69 3.15 15.06 3.15L15.06 3.15L15.06 3.15Q16.44 3.15 17.47 3.60L17.47 3.60L17.47 3.60Q18.51 4.05 19.10 4.91L19.10 4.91L19.10 4.91Q19.70 5.78 19.74 6.99L19.74 6.99L19.74 6.99Q19.77 7.77 19.77 8.23L19.77 8.23L19.77 8.23Q19.77 8.69 19.74 9.45L19.74 9.45L19.74 9.45Q19.66 11.30 18.41 12.26L18.41 12.26L18.41 12.26Q17.16 13.23 15.06 13.23L15.06 13.23ZM15.06 10.50L15.06 10.50Q15.54 10.50 15.81 10.22L15.81 10.22L15.81 10.22Q16.09 9.94 16.10 9.37L16.10 9.37L16.10 9.37Q16.13 8.55 16.13 8.18L16.13 8.18L16.13 8.18Q16.13 7.77 16.10 7.01L16.10 7.01L16.10 7.01Q16.09 6.44 15.81 6.16L15.81 6.16L15.81 6.16Q15.53 5.88 15.06 5.88L15.06 5.88L15.06 5.88Q14.60 5.88 14.32 6.16L14.32 6.16L14.32 6.16Q14.04 6.44 14.03 7.01L14.03 7.01L14.03 7.01Q14.01 7.39 14.01 8.18L14.01 8.18L14.01 8.18Q14.01 8.96 14.03 9.37L14.03 9.37L14.03 9.37Q14.04 9.94 14.32 10.22L14.32 10.22L14.32 10.22Q14.59 10.50 15.06 10.50L15.06 10.50ZM25.45 13.23L25.45 13.23Q23.35 13.23 22.11 12.26L22.11 12.26L22.11 12.26Q20.86 11.30 20.78 9.45L20.78 9.45L20.78 9.45Q20.76 9.07 20.76 8.23L20.76 8.23L20.76 8.23Q20.76 7.38 20.78 6.99L20.78 6.99L20.78 6.99Q20.82 5.78 21.41 4.91L21.41 4.91L21.41 4.91Q22.01 4.05 23.04 3.60L23.04 3.60L23.04 3.60Q24.08 3.15 25.45 3.15L25.45 3.15L25.45 3.15Q26.82 3.15 27.86 3.60L27.86 3.60L27.86 3.60Q28.90 4.05 29.49 4.91L29.49 4.91L29.49 4.91Q30.09 5.78 30.13 6.99L30.13 6.99L30.13 6.99Q30.16 7.77 30.16 8.23L30.16 8.23L30.16 8.23Q30.16 8.69 30.13 9.45L30.13 9.45L30.13 9.45Q30.04 11.30 28.80 12.26L28.80 12.26L28.80 12.26Q27.55 13.23 25.45 13.23L25.45 13.23ZM25.45 10.50L25.45 10.50Q25.93 10.50 26.20 10.22L26.20 10.22L26.20 10.22Q26.47 9.94 26.49 9.37L26.49 9.37L26.49 9.37Q26.52 8.55 26.52 8.18L26.52 8.18L26.52 8.18Q26.52 7.77 26.49 7.01L26.49 7.01L26.49 7.01Q26.47 6.44 26.19 6.16L26.19 6.16L26.19 6.16Q25.91 5.88 25.45 5.88L25.45 5.88L25.45 5.88Q24.99 5.88 24.71 6.16L24.71 6.16L24.71 6.16Q24.43 6.44 24.42 7.01L24.42 7.01L24.42 7.01Q24.40 7.39 24.40 8.18L24.40 8.18L24.40 8.18Q24.40 8.96 24.42 9.37L24.42 9.37L24.42 9.37Q24.43 9.94 24.70 10.22L24.70 10.22L24.70 10.22Q24.98 10.50 25.45 10.50L25.45 10.50ZM35.85 13.23L35.85 13.23Q33.74 13.23 32.49 12.30L32.49 12.30L32.49 12.30Q31.25 11.37 31.16 9.44L31.16 9.44L31.16 9.44Q31.15 9.06 31.15 8.20L31.15 8.20L31.15 8.20Q31.15 7.34 31.16 6.94L31.16 6.94L31.16 6.94Q31.25 5.07 32.52 4.11L32.52 4.11L32.52 4.11Q33.80 3.15 35.85 3.15L35.85 3.15L35.85 3.15Q37.11 3.15 38.17 3.53L38.17 3.53L38.17 3.53Q39.23 3.91 39.89 4.71L39.89 4.71L39.89 4.71Q40.56 5.52 40.57 6.73L40.57 6.73L40.57 6.73Q40.57 6.86 40.48 6.95L40.48 6.95L40.48 6.95Q40.39 7.04 40.26 7.04L40.26 7.04L37.41 7.04L37.41 7.04Q37.18 7.04 37.08 6.96L37.08 6.96L37.08 6.96Q36.97 6.87 36.89 6.64L36.89 6.64L36.89 6.64Q36.74 6.22 36.48 6.05L36.48 6.05L36.48 6.05Q36.23 5.88 35.84 5.88L35.84 5.88L35.84 5.88Q35.35 5.88 35.08 6.14L35.08 6.14L35.08 6.14Q34.82 6.40 34.80 7.01L34.80 7.01L34.80 7.01Q34.79 7.39 34.79 8.18L34.79 8.18L34.79 8.18Q34.79 8.96 34.80 9.37L34.80 9.37L34.80 9.37Q34.82 9.98 35.08 10.24L35.08 10.24L35.08 10.24Q35.35 10.50 35.84 10.50L35.84 10.50L35.84 10.50Q36.64 10.50 36.89 9.74L36.89 9.74L36.89 9.74Q36.96 9.51 37.06 9.42L37.06 9.42L37.06 9.42Q37.17 9.34 37.41 9.34L37.41 9.34L40.26 9.34L40.26 9.34Q40.39 9.34 40.48 9.43L40.48 9.43L40.48 9.43Q40.57 9.52 40.57 9.65L40.57 9.65L40.57 9.65Q40.56 10.86 39.89 11.67L39.89 11.67L39.89 11.67Q39.23 12.47 38.17 12.85L38.17 12.85L38.17 12.85Q37.11 13.23 35.85 13.23L35.85 13.23ZM42.06 13.09L42.06 13.09Q41.90 13.09 41.79 12.98L41.79 12.98L41.79 12.98Q41.68 12.88 41.68 12.71L41.68 12.71L41.68 3.67L41.68 3.67Q41.68 3.51 41.79 3.40L41.79 3.40L41.79 3.40Q41.90 3.29 42.06 3.29L42.06 3.29L44.80 3.29L44.80 3.29Q44.95 3.29 45.07 3.40L45.07 3.40L45.07 3.40Q45.18 3.51 45.18 3.67L45.18 3.67L45.18 6.61L47.45 6.61L47.45 3.67L47.45 3.67Q47.45 3.51 47.56 3.40L47.56 3.40L47.56 3.40Q47.67 3.29 47.82 3.29L47.82 3.29L50.57 3.29L50.57 3.29Q50.72 3.29 50.83 3.40L50.83 3.40L50.83 3.40Q50.95 3.51 50.95 3.67L50.95 3.67L50.95 12.71L50.95 12.71Q50.95 12.87 50.83 12.98L50.83 12.98L50.83 12.98Q50.72 13.09 50.57 13.09L50.57 13.09L47.82 13.09L47.82 13.09Q47.67 13.09 47.56 12.98L47.56 12.98L47.56 12.98Q47.45 12.87 47.45 12.71L47.45 12.71L47.45 9.69L45.18 9.69L45.18 12.71L45.18 12.71Q45.18 12.87 45.07 12.98L45.07 12.98L45.07 12.98Q44.95 13.09 44.80 13.09L44.80 13.09L42.06 13.09Z"></path></g><!----><!----></svg>